<svg width="50" height="53" viewBox="0 0 50 53" fill="none" xmlns="http://www.w3.org/2000/svg">
<path d="M1 4H49V47C49 49.7614 46.7614 52 44 52H6C3.23858 52 1 49.7614 1 47V4Z" stroke="black" stroke-width="2"/>
<mask id="path-2-inside-1_29_33" fill="white">
<path d="M15 3L7 3L7 1.58735e-08L15 7.15256e-07L15 3Z"/>
</mask>
<path d="M15 3L15 4L17 4L17 3L15 3ZM7 3L5 3L5 4L7 4L7 3ZM15 2L7 2L7 4L15 4L15 2ZM9 3L9 1.90719e-07L5 -1.58972e-07L5 3L9 3ZM13 5.4041e-07L13 3L17 3L17 8.90101e-07L13 5.4041e-07Z" fill="black" mask="url(#path-2-inside-1_29_33)"/>
<mask id="path-4-inside-2_29_33" fill="white">
<path d="M29 3L21 3L21 1.58735e-08L29 7.15256e-07L29 3Z"/>
</mask>
<path d="M29 3L29 4L31 4L31 3L29 3ZM21 3L19 3L19 4L21 4L21 3ZM29 2L21 2L21 4L29 4L29 2ZM23 3L23 1.90719e-07L19 -1.58972e-07L19 3L23 3ZM27 5.4041e-07L27 3L31 3L31 8.90101e-07L27 5.4041e-07Z" fill="black" mask="url(#path-4-inside-2_29_33)"/>
<mask id="path-6-inside-3_29_33" fill="white">
<path d="M43 3L35 3L35 1.58735e-08L43 7.15256e-07L43 3Z"/>
</mask>
<path d="M43 3L43 4L45 4L45 3L43 3ZM35 3L33 3L33 4L35 4L35 3ZM43 2L35 2L35 4L43 4L43 2ZM37 3L37 1.90719e-07L33 -1.58972e-07L33 3L37 3ZM41 5.4041e-07L41 3L45 3L45 8.90101e-07L41 5.4041e-07Z" fill="black" mask="url(#path-6-inside-3_29_33)"/>
</svg>
